<?xml version="1.0" encoding="UTF-8" standalone="no"?>
<!-- Created with Inkscape (http://www.inkscape.org/) -->

<svg
   width="100"
   height="100"
   viewBox="0 0 100 100"
   version="1.1"
   id="svg1"
   inkscape:version="1.3.2 (091e20e, 2023-11-25, custom)"
   sodipodi:docname="Inkscape.svg"
   xmlns:inkscape="http://www.inkscape.org/namespaces/inkscape"
   xmlns:sodipodi="http://sodipodi.sourceforge.net/DTD/sodipodi-0.dtd"
   xmlns:xlink="http://www.w3.org/1999/xlink"
   xmlns="http://www.w3.org/2000/svg"
   xmlns:svg="http://www.w3.org/2000/svg">
  <sodipodi:namedview
     id="namedview1"
     pagecolor="#505050"
     bordercolor="#eeeeee"
     borderopacity="1"
     inkscape:showpageshadow="0"
     inkscape:pageopacity="0"
     inkscape:pagecheckerboard="0"
     inkscape:deskcolor="#505050"
     inkscape:document-units="px"
     inkscape:zoom="4"
     inkscape:cx="-9"
     inkscape:cy="67.625"
     inkscape:window-width="1920"
     inkscape:window-height="1009"
     inkscape:window-x="-8"
     inkscape:window-y="-8"
     inkscape:window-maximized="1"
     inkscape:current-layer="layer1" />
  <defs
     id="defs1">
    <linearGradient
       id="linearGradient91"
       inkscape:collect="always">
      <stop
         style="stop-color:#808080;stop-opacity:1;"
         offset="0"
         id="stop91" />
      <stop
         style="stop-color:#808080;stop-opacity:0;"
         offset="1"
         id="stop92" />
    </linearGradient>
    <inkscape:perspective
       sodipodi:type="inkscape:persp3d"
       inkscape:vp_x="-28.077717 : 40.606699 : 1"
       inkscape:vp_y="0 : 1000 : 0"
       inkscape:vp_z="174.29105 : 30.169699 : 1"
       inkscape:persp3d-origin="30.314967 : -18.155869 : 1"
       id="perspective59" />
    <inkscape:perspective
       sodipodi:type="inkscape:persp3d"
       inkscape:vp_x="-32.704469 : 53.460797 : 1"
       inkscape:vp_y="0 : 909.85355 : 0"
       inkscape:vp_z="121.52234 : 56.728772 : 1"
       inkscape:persp3d-origin="40.547055 : 42.459851 : 1"
       id="perspective1" />
    <linearGradient
       inkscape:collect="always"
       xlink:href="#linearGradient91"
       id="linearGradient92"
       x1="61.205772"
       y1="41.241573"
       x2="-31.936531"
       y2="38.695103"
       gradientUnits="userSpaceOnUse" />
  </defs>
  <g
     inkscape:label="Ebene 1"
     inkscape:groupmode="layer"
     id="g47"
     transform="matrix(0.93752143,0,0,0.95634374,2.1091806,3.0026822)">
    <g
       sodipodi:type="inkscape:box3d"
       id="g69"
       style="fill:#ffffff;fill-opacity:1;fill-rule:evenodd"
       inkscape:perspectiveID="#perspective59"
       inkscape:corner0="1.1271435 : 0.10163386 : 0 : 1"
       inkscape:corner7="-0.25475274 : 0.028133596 : 0.48536198 : 1">
      <path
         sodipodi:type="inkscape:box3dside"
         id="path74"
         style="fill:#e9e9ff;fill-rule:evenodd;stroke:none;stroke-linejoin:round"
         inkscape:box3dsidetype="11"
         d="M 31.744577,43.833212 103.54874,26.841395 V 89.294597 L 31.744577,73.251519 Z"
         points="103.54874,26.841395 103.54874,89.294597 31.744577,73.251519 31.744577,43.833212 " />
      <path
         sodipodi:type="inkscape:box3dside"
         id="path69"
         style="fill:#353564;fill-rule:evenodd;stroke:none;stroke-linejoin:round"
         inkscape:box3dsidetype="6"
         d="M -2.9179895,37.890375 V 74.021218 L 31.744577,73.251519 V 43.833212 Z"
         points="-2.9179895,74.021218 31.744577,73.251519 31.744577,43.833212 -2.9179895,37.890375 " />
      <path
         sodipodi:type="inkscape:box3dside"
         id="path73"
         style="fill:#afafde;fill-rule:evenodd;stroke:none;stroke-linejoin:round"
         inkscape:box3dsidetype="13"
         d="M -2.9179895,74.021218 51.376467,101.94001 103.54874,89.294597 31.744577,73.251519 Z"
         points="51.376467,101.94001 103.54874,89.294597 31.744577,73.251519 -2.9179895,74.021218 " />
      <path
         sodipodi:type="inkscape:box3dside"
         id="path70"
         style="fill:#4d4d9f;fill-rule:evenodd;stroke:none;stroke-linejoin:round"
         inkscape:box3dsidetype="5"
         d="M -2.9179895,37.890375 51.376467,-1.1874883 103.54874,26.841395 31.744577,43.833212 Z"
         points="51.376467,-1.1874883 103.54874,26.841395 31.744577,43.833212 -2.9179895,37.890375 " />
      <path
         sodipodi:type="inkscape:box3dside"
         id="path72"
         style="fill:#d7d7ff;fill-rule:evenodd;stroke:none;stroke-linejoin:round"
         inkscape:box3dsidetype="14"
         d="M 51.376467,-1.1874883 V 101.94001 L 103.54874,89.294597 V 26.841395 Z"
         points="51.376467,101.94001 103.54874,89.294597 103.54874,26.841395 51.376467,-1.1874883 " />
      <path
         sodipodi:type="inkscape:box3dside"
         id="path71"
         style="fill:url(#linearGradient92);fill-opacity:1;fill-rule:evenodd;stroke:none;stroke-linejoin:round"
         inkscape:box3dsidetype="3"
         d="M -2.9179895,37.890375 51.376467,-1.1874883 V 101.94001 L -2.9179895,74.021218 Z"
         points="51.376467,-1.1874883 51.376467,101.94001 -2.9179895,74.021218 -2.9179895,37.890375 " />
      <g
         inkscape:groupmode="layer"
         id="layer1"
         inkscape:label="Ebene 2"
         style="fill:#2e26b1;fill-opacity:0.40647483;fill-rule:evenodd"
         transform="matrix(1.0666423,0,0,1.0456491,-2.2497412,-3.139752)">
        <ellipse
           style="fill:#fb4c00;fill-opacity:0.54316545;fill-rule:evenodd;stroke-width:1.05609"
           id="path169"
           cx="52.815666"
           cy="48.097054"
           rx="14.799662"
           ry="18.298859"
           transform="matrix(0.93752143,0,0,0.95634374,2.1091806,3.0026822)" />
      </g>
    </g>
    <path
       style="fill:#808080;fill-opacity:1;fill-rule:evenodd;stroke-width:0.949718"
       id="path79"
       d="M 0.45306453,60.999893 C 2.3400719,58.520306 4.765435,56.855785 7.1320046,55.155963 9.6681424,53.316055 12.506803,52.423885 15.39771,51.869945 c 2.469536,-0.369122 4.858079,0.468518 7.133484,1.549873 1.639805,0.830141 3.234843,1.782684 4.781529,2.842731 0.365211,0.250304 1.451275,1.021447 1.087513,0.768063 -3.198859,-2.228214 -6.395214,-4.461709 -9.59282,-6.692564 2.032734,1.503853 3.903359,3.297396 5.866737,4.926563 4.338412,3.501253 1.186796,0.983044 12.206801,8.639957 0.808819,0.561982 1.713891,0.867114 2.623031,1.067232 1.755434,0.365913 3.423476,-0.558402 5.000292,-1.376856 2.366538,-1.46528 4.575708,-3.271064 6.799428,-5.02702 1.920198,-1.623118 3.902962,-3.110881 5.953908,-4.477451 1.880448,-1.222936 3.865678,-2.182411 5.884547,-3.009559 2.496328,-0.909075 5.119517,-0.979934 7.704038,-1.08502 1.886192,0.03407 3.799934,-0.209664 5.666624,0.221158 1.126623,0.260018 1.774363,0.548467 2.872464,0.964428 3.114181,1.307605 6.095715,3.029274 9.12778,4.587721 3.025888,1.648577 6.036548,3.367855 9.181006,4.661649 1.758165,0.770479 3.600128,1.320087 5.459908,1.581645 0.92295,0.129805 2.09679,0.16631 3.01637,0.212394 3.53925,0.142651 7.08048,0.09041 10.62084,0.08963 3.24935,0.03568 6.47842,0.50868 9.71849,0.734019 0.36585,0.01654 0.7317,0.03308 1.09756,0.04963 0,0 -10.08276,-8.949177 -10.08276,-8.949177 v 0 c -0.35685,-0.01578 -0.71372,-0.03157 -1.07057,-0.04735 -3.15395,-0.14982 -6.30994,-0.241246 -9.46318,-0.41778 -3.55856,0.0033 -7.121745,-8.68e-4 -10.674855,-0.261781 -2.842294,-0.321645 -5.654751,-0.874752 -8.323383,-2.163657 -3.052237,-1.370687 -6.01299,-3.015487 -8.992095,-4.601165 -3.077026,-1.608565 -6.104074,-3.414555 -9.332493,-4.544674 -1.221524,-0.38394 -1.809208,-0.619728 -3.063805,-0.810907 -1.891939,-0.288298 -3.796685,0.02287 -5.693463,0.004 -2.727557,0.106112 -5.508777,0.160653 -8.102491,1.312336 -2.059575,0.931849 -4.155933,1.799488 -6.028379,3.226344 -2.010409,1.484994 -4.035865,2.941289 -5.962383,4.585441 -2.12462,1.760999 -4.219032,3.651661 -6.658612,4.734593 -1.675444,0.679519 -3.050695,1.082215 -4.779373,0.408738 -0.575681,-0.241287 -1.119417,-0.507059 -1.659272,-0.853177 -0.218133,-0.13985 -0.860264,-0.586564 -0.646946,-0.436197 3.346748,2.359098 6.698232,4.708314 10.047348,7.06247 -0.26016,-0.183642 -0.52032,-0.367284 -0.780479,-0.550926 -0.158026,-0.123748 -1.767952,-1.382664 -1.871791,-1.469889 -1.37288,-1.153237 -2.670424,-2.437024 -4.05635,-3.568457 -5.73834,-4.02527 -11.40798,-8.639334 -17.64605,-11.571711 -2.435889,-0.949836 -4.9355641,-1.587109 -7.4856255,-0.889367 -2.9596434,0.752636 -5.86051519,1.818257 -8.4426507,3.787172 -0.3729093,0.275522 -2.3636185,1.743424 -2.7076112,2.009685 -1.5458994,1.196571 -3.0036473,2.551551 -4.5714996,3.707043 z" />
    <path
       style="fill:#ff0000;fill-opacity:1;fill-rule:evenodd;stroke-width:0.949718"
       id="path79-9"
       d="m -1.4882494,56.4162 c 1.88700739,-2.479587 4.3123705,-4.144108 6.6789401,-5.84393 2.5361378,-1.839908 5.3747983,-2.732078 8.2657053,-3.286018 2.469536,-0.369122 4.858079,0.468518 7.133484,1.549873 1.639805,0.830141 3.234843,1.782684 4.781529,2.842731 0.365211,0.250304 1.451275,1.021447 1.087513,0.768063 -3.198859,-2.228214 -6.395214,-4.461709 -9.59282,-6.692564 2.032734,1.503853 3.903359,3.297396 5.866737,4.926563 4.338412,3.501253 1.186796,0.983044 12.206801,8.639957 0.808819,0.561982 1.713891,0.867114 2.623031,1.067232 1.755434,0.365913 3.423476,-0.558402 5.000292,-1.376856 2.366538,-1.46528 4.575708,-3.271064 6.799428,-5.02702 1.920198,-1.623118 3.902962,-3.110881 5.953908,-4.477451 1.880448,-1.222936 3.865678,-2.182411 5.884547,-3.009559 2.496328,-0.909075 5.119517,-0.979934 7.704038,-1.08502 1.886192,0.03407 3.799934,-0.209664 5.666624,0.221158 1.126623,0.260018 1.774363,0.548467 2.872464,0.964428 3.114181,1.307605 6.095715,3.029274 9.12778,4.587721 3.025888,1.648577 6.036548,3.367855 9.181006,4.661649 1.758165,0.770479 3.60013,1.320087 5.459912,1.581645 0.92295,0.129805 2.09679,0.16631 3.01637,0.212394 3.53925,0.142651 7.08048,0.09041 10.62084,0.08963 3.24935,0.03568 6.47842,0.50868 9.71849,0.734019 0.36585,0.01654 0.7317,0.03308 1.09756,0.04963 0,0 -10.08276,-8.949177 -10.08276,-8.949177 v 0 c -0.35685,-0.01578 -0.71372,-0.03157 -1.07057,-0.04735 -3.15395,-0.14982 -6.30994,-0.241246 -9.46318,-0.41778 -3.55856,0.0033 -7.121749,-8.68e-4 -10.674859,-0.261781 C 91.532267,48.516742 88.71981,47.963635 86.051178,46.67473 82.998941,45.304043 80.038188,43.659243 77.059083,42.073565 73.982057,40.465 70.955009,38.65901 67.72659,37.528891 c -1.221524,-0.38394 -1.809208,-0.619728 -3.063805,-0.810907 -1.891939,-0.288298 -3.796685,0.02287 -5.693463,0.004 -2.727557,0.106112 -5.508777,0.160653 -8.102491,1.312336 -2.059575,0.931849 -4.155933,1.799488 -6.028379,3.226344 -2.010409,1.484994 -4.035865,2.941289 -5.962383,4.585441 -2.12462,1.760999 -4.219032,3.651661 -6.658612,4.734593 -1.675444,0.679519 -3.050695,1.082215 -4.779373,0.408738 -0.575681,-0.241287 -1.119417,-0.507059 -1.659272,-0.853177 -0.218133,-0.13985 -0.860264,-0.586564 -0.646946,-0.436197 3.346748,2.359098 6.698232,4.708314 10.047348,7.06247 -0.26016,-0.183642 -0.52032,-0.367284 -0.780479,-0.550926 C 34.240709,56.087858 32.630783,54.828942 32.526944,54.741717 31.154064,53.58848 29.85652,52.304693 28.470594,51.17326 22.732254,47.14799 17.062614,42.533926 10.824544,39.601549 8.3886551,38.651713 5.88898,38.01444 3.3389186,38.712182 c -2.95964341,0.752636 -5.8605152,1.818257 -8.4426507,3.787172 -0.3729093,0.275522 -2.3636185,1.743424 -2.7076112,2.009685 -1.5458994,1.196571 -3.0036477,2.551551 -4.5714997,3.707043 z" />
  </g>
</svg>
